# xmcd
#
# Track frame offsets:
#	150
#	66794
#	95331
#	140196
#
# Disc length: 2288 seconds
#
# Revision: 0
# Processed by: cddbd v1.5.2PL0 Copyright (c) Steve Scherf et al.
# Submitted via: EasyCDDAExtractor 10.0.3.1
#
DISCID=3608ee04
DTITLE=Grateful Dead - 12-31-81 Oakland Arena [CD4]
DYEAR=1981
DGENRE=Classic Rock
TTITLE0=Dark Star
TTITLE1=Bertha
TTITLE2=Good Lovin'
TTITLE3=It's All Over Now, Baby Blue
EXTD=
EXTT0=
EXTT1=
EXTT2=
EXTT3=
PLAYORDER=
